# xmcd CD database file
#
# Track frame offsets:
#	150
#	19349
#	21227
#	44363
#	64631
#	80726
#	86077
#	106417
#	123471
#	148900
#	169202
#	185986
#	200988
#
# Disc length: 3003 seconds
#
# Revision: 0
# Processed by: cddbd v1.5PL3 Copyright (c) Steve Scherf et al.
# Submitted via: CDex 1.51
#
DISCID=c90bb90d
DTITLE=Briar Branch Road - The Pain I Deserve
DYEAR=2003
DGENRE=Red Dirt
TTITLE0=Another Day
TTITLE1=Grandpa
TTITLE2=Back Then
TTITLE3=The Pain I Deserve
TTITLE4=Don't Go Leaving
TTITLE5=Prayer Song
TTITLE6=Inherited Sadness
TTITLE7=Crazy Lady
TTITLE8=Far From Saints
TTITLE9=You Won't Be Back
TTITLE10=For Marcy
TTITLE11=Insecurity
TTITLE12=Three Across The Seat
EXTD=YEAR: 2003
EXTT0=
EXTT1=
EXTT2=
EXTT3=
EXTT4=
EXTT5=
EXTT6=
EXTT7=
EXTT8=
EXTT9=
EXTT10=
EXTT11=
EXTT12=
PLAYORDER=
